<svg width="94" height="93" viewBox="0 0 94 93" fill="none" xmlns="http://www.w3.org/2000/svg">
<path d="M75.9129 82.4816C72.2846 88.6512 68.5987 91.1983 64.8552 90.1231C60.622 88.8115 57.9265 85.0598 56.7689 78.8681C54.3654 80.2864 52.0285 81.4464 49.7582 82.3482C48.1758 82.9316 46.5215 82.7255 44.7954 81.7297C43.2626 80.8389 41.9913 79.5748 40.9814 77.9375C40.3681 76.8982 40.1096 75.9778 40.206 75.1765C40.3291 74.272 40.9478 73.6879 42.0622 73.4244L29.8224 70.269L28.5642 75.1495C27.6589 78.6613 25.4503 79.9645 21.9384 79.0592C18.3749 78.1405 17.0459 75.9253 17.9512 72.4134L19.2094 67.533L8.20906 64.6971C4.95544 63.8583 3.75468 61.7863 4.60677 58.481C5.44555 55.2274 7.49175 54.02 10.7454 54.8588L21.7457 57.6947L22.5046 54.7509L14.603 52.7139C13.1053 52.3278 12.0114 51.5501 11.3215 50.3808C10.6315 49.2116 10.4796 47.8781 10.8657 46.3804L15.8185 27.1685C16.2046 25.6708 16.9823 24.577 18.1516 23.8871C19.3208 23.1971 20.6543 23.0452 22.152 23.4313L35.6313 26.9062L49.188 30.4012C50.6857 30.7873 51.7796 31.5649 52.4695 32.7342C53.1595 33.9035 53.3114 35.2369 52.9253 36.7346L47.9725 55.9465C47.5864 57.4442 46.8087 58.538 45.6394 59.228C44.4702 59.9179 43.1367 60.0699 41.639 59.6837L33.1176 57.4869L32.3587 60.4307L42.5844 63.0669C44.0821 63.453 45.1759 64.2306 45.8659 65.3999C46.5558 66.5692 46.7077 67.9026 46.3216 69.4003L45.5827 72.2666C49.3055 70.8581 52.7726 69.0531 55.9838 66.8517C56.1955 60.9029 57.0849 53.3938 58.6519 44.3245L58.4969 44.2846C54.9169 43.8573 53.373 41.8345 53.8652 38.2162C54.3707 34.5462 56.4002 32.9764 59.9535 33.507L60.6707 33.6092C61.3296 30.1991 62.4677 24.9297 64.0851 17.8011C64.9271 14.1077 67.1041 12.7137 70.6159 13.619C74.0245 14.4978 75.3144 16.758 74.4857 20.3998C73.2459 25.4226 72.156 30.2913 71.2159 35.0059L81.9161 36.4426C85.4828 36.9215 87.0267 38.9443 86.5478 42.511C86.0689 46.0777 84.0461 47.6216 80.4794 47.1427L75.7491 46.5842L79.3907 50.084C80.4054 51.0616 80.9729 52.1718 81.0932 53.4145C81.2651 54.6705 80.9589 55.8583 80.1745 56.978C76.4227 62.3446 71.9627 67.2533 66.7947 71.7041C66.9803 74.616 67.5246 76.2434 68.4276 76.5863C68.6858 76.6529 68.8999 76.5704 69.0697 76.3388C71.7136 70.3561 74.4254 69.2376 77.2049 72.9834C77.8965 73.9328 78.021 75.4795 77.5784 77.6236C77.2557 79.3028 76.7005 80.9222 75.9129 82.4816ZM21.8127 45.8979L25.2988 46.7966L25.9978 44.0853L23.6737 43.4861L21.4272 42.907L21.0078 44.5338C20.8214 45.2568 21.0897 45.7115 21.8127 45.8979ZM34.5174 49.1731L36.8414 49.7723L38.3132 50.1517C38.933 50.3115 39.3227 50.0815 39.4825 49.4618L39.9418 47.68L35.2163 46.4618L34.5174 49.1731ZM67.6406 56.8861C69.2311 55.2032 70.6275 53.5254 71.8298 51.8526C73.1354 50.2064 74.3386 48.4236 75.4392 46.5043L69.2745 45.7412C68.5459 49.8494 68.0013 53.5643 67.6406 56.8861ZM23.3843 35.3152L27.9549 36.4935L28.6539 33.7821L26.3299 33.183L24.9355 32.8235C24.3674 32.6771 24.0101 32.8879 23.8637 33.456L23.3843 35.3152ZM37.1735 38.87L39.4975 39.4691L41.899 40.0882L42.3184 38.4614C42.5048 37.7384 42.2365 37.2837 41.5134 37.0973L37.8725 36.1587L37.1735 38.87ZM21.9565 20.985C20.4588 20.5989 19.365 19.8212 18.675 18.652C17.985 17.4827 17.8331 16.1492 18.2192 14.6516L20.0765 7.44711C20.4626 5.94941 21.2403 4.85558 22.4096 4.16563C23.5788 3.47567 24.9123 3.32375 26.41 3.70986L30.3608 4.72838L35.1638 5.96658C36.4549 6.29943 37.388 6.95304 37.9629 7.92742C38.5379 8.9018 38.6589 10.0346 38.3261 11.3257L36.2691 19.3048C35.883 20.8025 35.1053 21.8963 33.936 22.5863C32.7668 23.2762 31.4333 23.4281 29.9356 23.042L21.9565 20.985ZM42.3303 26.2374C40.8326 25.8513 39.7388 25.0736 39.0489 23.9044C38.3589 22.7351 38.207 21.4016 38.5931 19.9039L40.4504 12.6995C40.8365 11.2018 41.6142 10.108 42.7834 9.418C43.9527 8.72804 45.2862 8.57612 46.7839 8.96223L50.7347 9.98075L55.5377 11.2189C56.8288 11.5518 57.7618 12.2054 58.3368 13.1798C58.9117 14.1542 59.0328 15.2869 58.6999 16.578L56.6429 24.5572C56.2568 26.0549 55.4792 27.1487 54.3099 27.8386C53.1406 28.5286 51.8072 28.6805 50.3095 28.2944L42.3303 26.2374ZM84.4567 33.9582C80.5822 34.887 78.4587 33.4033 78.0862 29.5069C78.0745 29.3387 78.0245 29.1055 77.9361 28.8073C77.9127 28.4708 77.8885 28.2442 77.8635 28.1276C77.5633 26.7284 77.3315 25.7048 77.168 25.0568C76.3126 21.752 77.5823 19.711 80.9772 18.9339C83.9572 18.2701 85.9024 19.3774 86.8126 22.2558C87.5046 24.9126 88.0124 27.1089 88.336 28.8447C88.5063 30.3206 88.2717 31.4443 87.6322 32.2157C87.0444 33.0005 85.9859 33.5813 84.4567 33.9582ZM26.9875 14.9292L27.7622 15.1289C28.3819 15.2887 28.7717 15.0587 28.9314 14.439L29.3109 12.9671C29.5106 12.1924 29.2231 11.7053 28.4485 11.5055L28.2161 11.4456C27.5963 11.2859 27.2066 11.5158 27.0468 12.1356L26.8271 12.9877L26.5276 14.1497C26.421 14.5629 26.5744 14.8227 26.9875 14.9292ZM47.3614 20.1816L48.2135 20.4013C48.8333 20.5611 49.223 20.3311 49.3828 19.7113L49.7423 18.3169C49.9553 17.4906 49.6486 16.9709 48.8223 16.7579L48.5899 16.698C47.9702 16.5382 47.5804 16.7682 47.4207 17.388L47.201 18.2401L46.9014 19.4021C46.7949 19.8153 46.9482 20.0751 47.3614 20.1816Z" fill="white"/>
</svg>
