<svg width="102" height="102" viewBox="0 0 102 102" fill="none" xmlns="http://www.w3.org/2000/svg">
<path d="M30.5017 78.8881C26.5732 80.1033 24.0272 79.1162 22.864 75.9268C21.4587 72.1424 23.3507 69.3289 28.5397 67.4863C32.7949 65.005 36.3488 60.8701 39.2015 55.0815L40.0856 53.2875C41.5945 50.2258 43.9037 49.4612 47.0133 50.9936C50.075 52.5024 50.8514 54.7877 49.3426 57.8495L48.2816 60.0022C45.7119 65.2168 42.9449 69.3233 39.9807 72.3219C37.1829 75.2241 34.0233 77.4128 30.5017 78.8881ZM15.6331 69.0634C12.0699 71.5884 9.27539 70.9247 7.24962 67.0724C6.28527 65.2891 5.94248 63.7526 6.22127 62.463C6.50006 61.1734 7.47114 59.9871 9.13452 58.9042C11.1307 57.6285 13.3287 56.1848 15.7284 54.5729C17.7246 53.2972 20.2308 51.5296 23.2469 49.2702C26.7852 46.5545 29.4486 47.2428 31.2373 51.335C32.542 54.2374 31.9716 56.6616 29.5261 58.6077C24.5636 62.5242 19.9326 66.0094 15.6331 69.0634ZM56.5002 95.4463C54.2039 94.3147 52.7757 92.7487 52.2156 90.7484C51.923 89.6529 51.8926 88.5082 52.1242 87.3142C52.4502 85.929 53.2261 83.9925 54.4521 81.5048L62.7979 64.5696C63.4816 63.1823 64.4662 62.2703 65.7517 61.8335C67.0372 61.3968 68.3736 61.5202 69.7609 62.2039L74.3535 64.4672C74.3696 63.1076 74.3384 61.8436 74.2601 60.6753C62.5921 55.7576 52.2386 51.3093 43.1997 47.3305C41.6453 46.6239 40.71 45.7468 40.3939 44.6991C40.102 43.7229 40.2851 42.3861 40.9432 40.6888C42.235 37.2229 44.6029 36.279 48.0466 37.8572L50.9524 39.2C53.4443 37.039 55.3899 35.2627 56.7892 33.8713L50.6179 30.83C47.5561 29.3211 46.7915 27.0119 48.3239 23.9023C49.8328 20.8406 52.1181 20.0642 55.1798 21.573L67.0201 27.4081L68.5054 24.3942C70.2264 20.9019 72.857 20.0281 76.3971 21.7727C79.8894 23.4937 80.775 26.1004 79.054 29.5927L77.5687 32.6066L86.4669 36.9917L90.7724 39.1135C93.8341 40.6224 94.6106 42.9077 93.1017 45.9694C91.5693 49.079 89.2722 49.8793 86.2105 48.3705L81.6179 46.1072C83.3912 51.6783 84.5173 56.6926 84.9962 61.1501C85.1008 62.7476 84.13 63.9935 82.0839 64.8878C80.4899 65.5887 78.5721 65.9814 76.3305 66.0658C75.8535 66.0686 75.4236 65.9757 75.0409 65.787C74.6104 65.5749 74.3937 65.2303 74.391 64.7532L63.8525 86.1375C63.3338 87.19 63.0752 87.8355 63.0766 88.074C63.0544 88.3603 63.1629 88.5624 63.4021 88.6803L64.0479 88.9986C64.2871 89.1165 64.5256 89.1151 64.7634 88.9945C64.9541 88.9695 65.3923 88.4423 66.0781 87.4127C66.1724 87.2213 66.2667 87.03 66.361 86.8386C67.4469 84.8765 68.4779 83.7495 69.4542 83.4577C70.5254 83.0937 71.6264 83.7552 72.7572 85.4422C73.96 87.2241 73.8885 89.2996 72.5426 91.6687C71.2189 93.7515 70.166 95.2244 69.3839 96.0876C67.9846 97.4791 66.5459 98.2268 65.0677 98.3307C63.6616 98.5296 62.0735 98.1929 60.3035 97.3206L56.5002 95.4463ZM43.5681 86.3976C40.5542 84.9123 39.7781 82.6866 41.2398 79.7206L51.1771 59.5562C52.6388 56.5902 54.8766 55.8498 57.8905 57.3351C60.8565 58.7968 61.6087 61.0107 60.147 63.9767L55.1607 74.0948L50.2097 84.1411C48.748 87.1071 46.5341 87.8593 43.5681 86.3976ZM33.5592 38.2985C29.874 40.3472 27.0909 39.6 25.2101 36.0569C24.921 35.5577 24.3799 34.7856 23.5867 33.7407C23.2498 33.2179 22.9971 32.8258 22.8286 32.5644C21.555 30.926 21.0455 29.4263 21.3 28.0652C21.5545 26.7042 22.5734 25.5415 24.3568 24.5772C26.9721 23.131 29.2279 23.44 31.1241 25.5042C31.7723 26.2398 32.7211 27.3912 33.9705 28.9582C34.523 29.6467 35.0638 30.3591 35.5928 31.0955C37.3995 34.1858 36.7216 36.5868 33.5592 38.2985ZM61.6424 44.1115L72.2607 48.9876C72.2115 48.7255 72.102 48.3445 71.9321 47.8446C71.8337 47.3204 71.7481 46.9512 71.6753 46.7369C71.2871 45.5943 71.7132 45.0313 72.9536 45.048L79.1063 44.8694L68.3424 39.5649C67.986 39.8054 67.4157 40.1784 66.6315 40.6838C65.8952 41.2128 65.337 41.6215 64.9571 41.9099C64.3864 42.2233 63.5547 42.7647 62.462 43.5343C62.1056 43.7749 61.8324 43.9673 61.6424 44.1115ZM42.3023 22.005C41.0599 21.6306 39.9561 20.4921 38.9911 18.5895C38.2202 17.2582 37.4503 16.1059 36.6814 15.1324C35.4556 13.5175 34.97 12.0296 35.2245 10.6686C35.4791 9.30754 36.4862 8.16877 38.2459 7.25225C40.8377 5.85391 43.0817 6.18682 44.9779 8.25099C46.2272 9.818 47.1403 10.9815 47.7171 11.7414C48.4382 12.6913 48.9432 13.4159 49.2323 13.9151C51.0148 16.934 50.3248 19.2993 47.1624 21.011C45.2362 22.0239 43.6162 22.3552 42.3023 22.005Z" fill="white"/>
</svg>
