<svg width="80" height="80" viewBox="0 0 80 80" fill="none" xmlns="http://www.w3.org/2000/svg">
<path d="M10.9555 76.5103C9.13921 76.5321 7.61042 76.1136 6.36919 75.2546C5.0239 74.3375 4.17552 73.0698 3.82406 71.4516C2.99371 67.5152 4.60049 65.6949 8.64442 65.9908C9.49682 66.0307 9.94295 65.6244 9.98281 64.772L10.7227 48.9493L10.3157 49.0904C6.41263 50.3495 4.09794 49.0399 3.37164 45.1618C2.68367 41.6057 4.04152 39.4001 7.44519 38.5448C7.66078 38.5015 7.95878 38.4087 8.33918 38.2663C9.63522 37.9531 10.6091 37.6783 11.2609 37.4419L11.7953 26.0144L9.31798 25.8985C5.80182 25.7341 4.1272 23.8671 4.29412 20.2977C4.45855 16.7816 6.29885 15.1057 9.815 15.2701L12.2923 15.386L12.7295 6.03618C12.8915 2.5733 14.7305 0.924076 18.2467 1.08851C21.7096 1.25044 23.36 3.06285 23.1981 6.52574L22.7609 15.8755L27.7954 16.1109L32.1391 13.9915C33.2878 13.4046 34.3874 13.2958 35.4379 13.6653C36.491 13.9815 37.3122 14.6873 37.9017 15.7827C38.3413 16.6575 38.7797 17.559 39.2168 18.4871L39.6914 8.33817C39.8559 4.82201 41.6962 3.14614 45.2123 3.31057C48.7285 3.475 50.4043 5.3153 50.2399 8.83146L49.6719 20.9782L48.8572 38.3991C48.4686 46.7101 47.4646 53.3371 45.8452 58.2801C43.6692 64.8523 40.0612 70.0762 35.0213 73.9516C31.4463 76.1871 28.567 76.1058 26.3833 73.7079C23.3871 70.4176 24.2304 67.2269 28.9132 64.1356C32.2567 61.1418 34.6495 57.3562 36.0916 52.7785C35.0928 53.5861 34.3182 54.1639 33.7681 54.5119C30.447 57.0261 27.8552 56.5045 25.9927 52.947C25.1134 51.1973 24.7774 49.8201 24.9846 48.8154C25.25 47.7065 26.2042 46.71 27.8473 45.8258C30.426 44.3447 33.4471 42.5371 36.9105 40.4033C37.4607 40.0553 37.8566 40.1539 38.098 40.6991L38.1667 40.9425C38.2165 39.877 38.2651 38.8382 38.3125 37.8259L38.6637 30.3141L36.1954 31.7204C34.8286 32.4039 33.9329 32.1485 33.5082 30.954C32.4224 27.9133 30.765 23.9649 28.5361 19.1088L28.3455 23.1844C28.2957 24.2499 27.9083 25.1127 27.1833 25.7729C26.5142 26.3823 25.6468 26.6621 24.5813 26.6123L22.2638 26.5039L21.9013 34.2554L22.0649 34.183C25.6433 33.0155 27.717 34.3405 28.286 38.1579C28.7833 41.2245 27.594 43.2512 24.7181 44.2379C24.3377 44.3803 23.7671 44.5939 23.0063 44.8786C22.3013 45.1126 21.7586 45.3008 21.3782 45.4432L20.4514 65.2615C20.3293 67.872 19.9949 69.8853 19.4481 71.3013C18.8407 72.8746 17.8777 74.0576 16.5592 74.8502C15.1292 75.7444 13.2613 76.2977 10.9555 76.5103ZM60.5201 78.4276C56.5245 78.2408 53.8826 77.0761 52.5946 74.9336C51.3067 72.7911 50.7984 68.8164 51.07 63.0094L52.4564 33.3618L53.5925 9.06832C53.7594 5.49889 55.6542 3.79888 59.2769 3.96829C62.8464 4.13521 64.5476 6.00339 64.3807 9.57282L63.6931 24.2768C64.2224 23.2337 64.991 21.6412 65.9988 19.4992C66.181 19.0272 66.3317 18.6605 66.4507 18.3992C67.2404 16.3538 68.2071 15.0909 69.3508 14.6105C70.4945 14.1301 72.0016 14.4408 73.8722 15.5427C76.9915 17.3437 77.4529 20.0349 75.2566 23.6162C73.2858 26.9411 71.838 29.3561 70.9134 30.8612C70.1685 31.9476 69.1772 32.5953 67.9394 32.8044C66.7016 33.0135 65.4596 32.7418 64.2134 31.9895L63.3568 31.4689L62.9644 39.8597L64.5537 38.4124C65.3902 37.6506 66.1918 37.6347 66.9586 38.3647C70.4826 41.7864 73.6058 45.216 76.3282 48.6536C77.179 49.868 77.5275 50.9788 77.3736 51.9861C77.169 52.9375 76.5052 54.001 75.3824 55.1765C73.8693 56.7075 72.5521 57.4735 71.4308 57.4744C70.203 57.4704 69.015 56.614 67.8669 54.9052C66.0611 52.4181 64.2961 50.1999 62.572 48.2506L61.8545 63.5938C61.7598 65.6182 61.7799 66.9006 61.9148 67.4408C62.0522 67.9278 62.4672 68.1874 63.1598 68.2198L66.1965 68.3618C66.5694 68.3793 66.8445 68.2053 67.0218 67.8398C68.0033 61.6923 70.3697 59.6139 74.1208 61.6046C75.4228 62.3062 76.242 63.6259 76.5785 65.5637C76.8234 67.1769 76.7412 68.935 76.3319 70.838C75.5023 73.7357 74.3117 75.789 72.7602 76.9979C71.2063 78.26 69.1773 78.8325 66.6734 78.7154L60.5201 78.4276Z" fill="white"/>
</svg>
