<svg width="106" height="106" viewBox="0 0 106 106" fill="none" xmlns="http://www.w3.org/2000/svg">
<path d="M14.5991 70.0442C11.6577 67.745 11.3366 65.1248 13.6358 62.1834L25.4107 47.1194C23.2749 48.293 21.4155 49.2427 19.8327 49.9686C17.1033 50.949 15.2974 51.0944 14.415 50.4046C13.4485 49.6492 13.2913 47.9017 13.9435 45.1622C14.3169 43.5586 14.8905 42.3485 15.6643 41.5318C16.4709 40.673 17.6629 40.014 19.2404 39.5547C24.0294 38.018 29.403 35.5167 35.3614 32.0509L32.462 29.7846C29.6467 27.584 29.3558 25.055 31.5892 22.1977C33.7899 19.3824 36.2978 19.075 39.1131 21.2757L43.147 24.4288L47.7782 18.504C46.1524 17.6394 44.9285 16.9535 44.1065 16.4463C41.5655 14.934 40.7426 12.8692 41.6376 10.2518C42.7404 6.84917 45.0016 6.07814 48.4211 7.93875C54.0088 10.7495 58.9223 12.8639 63.1615 14.2821C64.6573 14.7068 65.7105 15.3946 66.3209 16.3456C66.9222 17.2218 67.2489 18.4926 67.3011 20.1579C67.4956 24.8454 65.3846 26.3769 60.9681 24.7525C60.8512 24.7288 60.6713 24.6559 60.4284 24.5337C59.3581 24.1709 58.559 23.8509 58.0311 23.5736L51.9711 31.3262L53.736 32.7057C56.5513 34.9064 56.8586 37.4143 54.658 40.2296C52.4245 43.087 49.9002 43.4153 47.0848 41.2147L45.32 39.8352L44.7288 40.5916C45.1683 42.6274 45.5601 45.9799 45.9043 50.649C46.055 52.1883 45.7973 53.3408 45.1312 54.1063C44.5728 54.8206 43.5049 55.4074 41.9274 55.8667C39.6525 56.5254 38.1231 56.4469 37.3392 55.6311C36.5553 54.8153 36.4074 53.1427 36.8953 50.6132L27.9286 62.0846L22.4599 69.0809C20.1607 72.0222 17.5405 72.3433 14.5991 70.0442ZM29.4647 79.7348C26.8174 77.6655 26.5284 75.3073 28.5977 72.6601C30.6669 70.0128 33.0251 69.7238 35.6724 71.7931L45.1268 79.1832L48.5263 74.8342L41.8451 69.6118C39.324 67.6411 39.0651 65.3742 41.0687 62.811C43.0394 60.2898 45.2853 60.0145 47.8065 61.9852L54.4876 67.2076L57.493 63.3628C54.9665 61.6587 52.5358 59.9619 50.2011 58.2723C48.0252 56.6392 47.3986 54.6263 48.3212 52.2336C49.5264 49.0463 51.7448 48.5465 54.9765 50.7341C63.4292 56.4612 71.0403 61.0567 77.8099 64.5205C78.9406 65.0658 79.7317 65.7857 80.1833 66.6803C80.5836 67.4671 80.7915 68.5434 80.807 69.9093C80.7677 74.5495 78.7671 75.8965 74.8051 73.9504C72.2825 72.5878 69.7461 71.1129 67.1959 69.5257L63.5008 74.2529L70.0559 79.3767C72.5771 81.3474 72.8523 83.5933 70.8816 86.1145C68.8781 88.6777 66.6157 88.974 64.0945 87.0033L57.5395 81.8794L54.14 86.2285L62.8381 93.0274C65.4853 95.0966 65.7743 97.4549 63.7051 100.102C61.6358 102.749 59.2776 103.038 56.6303 100.969L43.016 90.3273L29.4647 79.7348ZM58.9663 48.8773C57.7477 47.9248 57.0559 46.7748 56.8907 45.4272C56.7256 44.0797 57.1193 42.7966 58.0718 41.578L69.4033 27.0813C70.3558 25.8627 71.5059 25.1708 72.8534 25.0057C74.201 24.8405 75.4841 25.2342 76.7026 26.1867L87.4176 34.5622L98.1326 42.9377C99.3512 43.8902 100.043 45.0402 100.208 46.3878C100.373 47.7354 99.9797 49.0184 99.0271 50.237L87.6956 64.7338C86.7431 65.9523 85.5931 66.6442 84.2455 66.8093C82.8979 66.9745 81.6149 66.5808 80.3963 65.6283L58.9663 48.8773ZM70.7264 45.7834L75.3906 49.4292L80.1178 53.1242C81.1262 53.9125 82.0246 53.8024 82.8129 52.794L86.2616 48.3819C87.0499 47.3734 86.9398 46.4751 85.9313 45.6868L76.54 38.3459C75.5315 37.5576 74.6331 37.6677 73.8448 38.6762L70.3961 43.0883C69.6078 44.0967 69.7179 44.9951 70.7264 45.7834Z" fill="white"/>
</svg>
